<svg width="102" height="75" viewBox="0 0 102 75" fill="none" xmlns="http://www.w3.org/2000/svg">
<path d="M58.8271 8.93439L30.5849 0.313672C30.2065 0.198096 29.7936 0.198096 29.4152 0.313672L1.17305 8.93439C0.470861 9.14871 0.000938905 9.72254 1.40473e-06 10.3667C-0.000936095 11.0109 0.467462 11.5857 1.16906 11.8014L29.4113 20.4876C29.6017 20.5462 29.8009 20.5755 30 20.5755C30.1992 20.5755 30.3983 20.5462 30.5887 20.4876L58.8309 11.8014C59.5325 11.5857 60.0008 11.0109 60 10.3667C59.9991 9.72254 59.5291 9.14871 58.8271 8.93439V8.93439Z" fill="#6B778D"/>
<path d="M55.7781 29.2333V15.9683L52.2625 17.0496V29.2333C51.2035 29.7606 50.49 30.7486 50.49 31.8815C50.49 33.0144 51.2035 34.0025 52.2625 34.5298V42.0033C52.2625 42.8432 53.0495 43.5241 54.0203 43.5241C54.991 43.5241 55.7781 42.8432 55.7781 42.0033V34.5299C56.837 34.0027 57.5505 33.0145 57.5505 31.8816C57.5505 30.7487 56.8371 29.7606 55.7781 29.2333Z" fill="#6B778D"/>
<path d="M30 23.617C29.3966 23.617 28.8024 23.5283 28.2337 23.3534L12.3568 18.4703V25.1624C12.3568 26.7996 14.331 28.1842 18.2247 29.2775C21.6185 30.2305 25.8005 30.7554 30 30.7554C34.1996 30.7554 38.3814 30.2305 41.7754 29.2775C45.6691 28.1842 47.6433 26.7996 47.6433 25.1624V18.4703L31.7665 23.3534C31.1977 23.5283 30.6034 23.617 30 23.617V23.617Z" fill="#6B778D"/>
<path d="M12.152 54.112C10.84 54.112 9.76267 53.8027 8.92 53.184C8.07733 52.5547 7.624 51.6587 7.56 50.496H10.904C10.936 50.8907 11.0533 51.1787 11.256 51.36C11.4587 51.5413 11.72 51.632 12.04 51.632C12.328 51.632 12.5627 51.5627 12.744 51.424C12.936 51.2747 13.032 51.072 13.032 50.816C13.032 50.4853 12.8773 50.2293 12.568 50.048C12.2587 49.8667 11.7573 49.664 11.064 49.44C10.328 49.1947 9.73067 48.96 9.272 48.736C8.824 48.5013 8.42933 48.1653 8.088 47.728C7.75733 47.28 7.592 46.6987 7.592 45.984C7.592 45.2587 7.77333 44.64 8.136 44.128C8.49867 43.6053 9 43.2107 9.64 42.944C10.28 42.6773 11.0053 42.544 11.816 42.544C13.128 42.544 14.1733 42.8533 14.952 43.472C15.7413 44.08 16.1627 44.9387 16.216 46.048H12.808C12.7973 45.7067 12.6907 45.4507 12.488 45.28C12.296 45.1093 12.0453 45.024 11.736 45.024C11.5013 45.024 11.3093 45.0933 11.16 45.232C11.0107 45.3707 10.936 45.568 10.936 45.824C10.936 46.0373 11.016 46.224 11.176 46.384C11.3467 46.5333 11.5547 46.6667 11.8 46.784C12.0453 46.8907 12.408 47.0293 12.888 47.2C13.6027 47.4453 14.1893 47.6907 14.648 47.936C15.1173 48.1707 15.5173 48.5067 15.848 48.944C16.1893 49.3707 16.36 49.9147 16.36 50.576C16.36 51.248 16.1893 51.8507 15.848 52.384C15.5173 52.9173 15.032 53.3387 14.392 53.648C13.7627 53.9573 13.016 54.112 12.152 54.112ZM23.5299 54L21.2899 49.84H20.9539V54H17.8179V42.72H22.7619C23.6685 42.72 24.4365 42.88 25.0659 43.2C25.6952 43.5093 26.1699 43.9413 26.4899 44.496C26.8099 45.04 26.9699 45.6533 26.9699 46.336C26.9699 47.104 26.7565 47.7813 26.3299 48.368C25.9139 48.944 25.3005 49.3547 24.4899 49.6L27.0339 54H23.5299ZM20.9539 47.696H22.5059C22.9325 47.696 23.2525 47.5947 23.4659 47.392C23.6792 47.1893 23.7859 46.896 23.7859 46.512C23.7859 46.1493 23.6739 45.8667 23.4499 45.664C23.2365 45.4507 22.9219 45.344 22.5059 45.344H20.9539V47.696ZM35.868 42.72V50.192C35.868 51.4613 35.5213 52.432 34.828 53.104C34.1453 53.776 33.2013 54.112 31.996 54.112C30.716 54.112 29.692 53.7547 28.924 53.04C28.1667 52.3253 27.788 51.296 27.788 49.952H30.892C30.9027 50.8373 31.228 51.28 31.868 51.28C32.444 51.28 32.732 50.9173 32.732 50.192V42.72H35.868ZM44.4118 54L40.8758 49.056V54H37.7398V42.72H40.8758V47.584L44.3798 42.72H47.9958L43.8518 48.192L48.2038 54H44.4118ZM53.5251 54.112C52.6291 54.112 51.8238 53.9253 51.1091 53.552C50.4051 53.1787 49.8505 52.6453 49.4451 51.952C49.0398 51.2587 48.8371 50.4427 48.8371 49.504C48.8371 48.576 49.0398 47.7653 49.4451 47.072C49.8611 46.3787 50.4211 45.8453 51.1251 45.472C51.8398 45.0987 52.6451 44.912 53.5411 44.912C54.4371 44.912 55.2371 45.0987 55.9411 45.472C56.6558 45.8453 57.2158 46.3787 57.6211 47.072C58.0371 47.7653 58.2451 48.576 58.2451 49.504C58.2451 50.432 58.0371 51.248 57.6211 51.952C57.2158 52.6453 56.6558 53.1787 55.9411 53.552C55.2265 53.9253 54.4211 54.112 53.5251 54.112ZM53.5251 51.392C53.9625 51.392 54.3251 51.232 54.6131 50.912C54.9118 50.5813 55.0611 50.112 55.0611 49.504C55.0611 48.896 54.9118 48.432 54.6131 48.112C54.3251 47.792 53.9678 47.632 53.5411 47.632C53.1145 47.632 52.7571 47.792 52.4691 48.112C52.1811 48.432 52.0371 48.896 52.0371 49.504C52.0371 50.1227 52.1758 50.592 52.4531 50.912C52.7305 51.232 53.0878 51.392 53.5251 51.392ZM71.249 44.944C72.3797 44.944 73.265 45.2853 73.905 45.968C74.5557 46.6507 74.881 47.584 74.881 48.768V54H71.745V49.184C71.745 48.704 71.6117 48.3307 71.345 48.064C71.0783 47.7973 70.7157 47.664 70.257 47.664C69.7983 47.664 69.4357 47.7973 69.169 48.064C68.9023 48.3307 68.769 48.704 68.769 49.184V54H65.633V49.184C65.633 48.704 65.4997 48.3307 65.233 48.064C64.977 47.7973 64.6197 47.664 64.161 47.664C63.6917 47.664 63.3237 47.7973 63.057 48.064C62.7903 48.3307 62.657 48.704 62.657 49.184V54H59.521V45.024H62.657V46.208C62.9343 45.824 63.2917 45.52 63.729 45.296C64.177 45.0613 64.689 44.944 65.265 44.944C65.9263 44.944 66.513 45.088 67.025 45.376C67.5477 45.664 67.9583 46.0693 68.257 46.592C68.577 46.1013 68.9983 45.7067 69.521 45.408C70.0437 45.0987 70.6197 44.944 71.249 44.944Z" fill="#6B778D"/>
</svg>
